# xmcd
#
# Track frame offsets:
#	150
#	15500
#	31833
#	45604
#	64606
#	79352
#	103353
#	116783
#	134255
#	144538
#	165926
#	190388
#
# Disc length: 2735 seconds
#
# Revision: 0
# Processed by: cddbd v1.5.2PL0 Copyright (c) Steve Scherf et al.
# Submitted via: audiograbber 1.83.01
#
DISCID=a10aad0c
DTITLE=Montana Rose - There's A Dream
DYEAR=1999
DGENRE=Country
TTITLE0=Somethin' 'bout You
TTITLE1=There's a Dream
TTITLE2=Dirty Little Town
TTITLE3=Between Husbands and Wives
TTITLE4=I'm Not Ready
TTITLE5=Come On and Break My Heart
TTITLE6=The Want To
TTITLE7=The Rain Came Down
TTITLE8=I Love You Honey
TTITLE9=Don't Touch Me
TTITLE10=Old California
TTITLE11=Waltz Across the Big Sky
EXTD=
EXTT0=
EXTT1=
EXTT2=
EXTT3=
EXTT4=
EXTT5=
EXTT6=
EXTT7=
EXTT8=
EXTT9=
EXTT10=
EXTT11=
PLAYORDER=
